<?xml version="1.0" encoding="UTF-8"?><svg id="Langbue_Graph" xmlns="http://www.w3.org/2000/svg" viewBox="0 0 595.28 841.89"><defs><style>.cls-1{fill:none;stroke-width:6px;}.cls-1,.cls-2{stroke:#ffffff;stroke-miterlimit:10;}.cls-2{stroke-linecap:round;stroke-width:8px;}.cls-2,.cls-3{fill:#ffffff;}</style></defs><g><path class="cls-3" d="M516.76,728.24c-2.52,0-4.56-2.04-4.56-4.56,0-.68,.16-1.32,.43-1.9,.29-.63,.23-1.37-.1-1.98-37.03-69.25-71.94-123.64-92-236.41-.06-.35-.1-.71-.09-1.06,.16-19.45,13.06-42.15-5.02-69.06-2.91-4.33,2.04-7.07,7.04-8.64,4.43-1.4,6.85-4.82,5.72-8.18-12.74-38.09-10.05-89.22-8.84-104.85l.12-.77c20.22-90.53,51.12-140.78,83.87-201.71,.58-1.08,.81-2.33,.57-3.54-.05-.27-.08-.54-.08-.83,0-2.41,2.26-3.24,4.25-4.53,.34-.22,.37-.7,.56-1.06,8.5-16.07-2.43-12.16-9.11-1.3-15.42,25.06-113.46,151.08-107.66,310.68v.33c-5.76,159.71,99.54,313.57,114.96,338.63,6.38,10.37,16.63,14.39,10.12,.72-.06,0-.12,.02-.19,.02Z"/><line class="cls-1" x1="505.9" y1="77.49" x2="513.83" y2="729.07"/></g><g><line class="cls-2" x1="185.26" y1="385.27" x2="513.83" y2="385.27"/><path class="cls-3" d="M501.93,385.27c0,6.3-.28,11.4-9.1,11.4s-27.39-5.11-27.39-11.4,18.57-11.4,27.39-11.4,9.1,5.11,9.1,11.4Z"/></g></svg>